<?xml version="1.0" encoding="utf-8"?>
<!-- Generator: Adobe Illustrator 16.0.0, SVG Export Plug-In . SVG Version: 6.00 Build 0)  -->
<!DOCTYPE svg PUBLIC "-//W3C//DTD SVG 1.1//EN" "http://www.w3.org/Graphics/SVG/1.1/DTD/svg11.dtd">
<svg version="1.1" id="Layer_1" xmlns="http://www.w3.org/2000/svg" xmlns:xlink="http://www.w3.org/1999/xlink" x="0px" y="0px"
	 width="316.626px" height="277.51px" viewBox="0 0 316.626 277.51" enable-background="new 0 0 316.626 277.51"
	 xml:space="preserve">
<g>
	<g>
		<path fill="#E8F5F8" d="M235.589,0c-54.666,0-77.276,60.777-77.276,60.777S135.693,0,81.039,0C26.381,0,0,51.354,0,95.174
			c0,52.24,45.863,83.467,88.213,110.631c1.523-10.186,4.107-35.482,7.943-47.506c4.361-13.693-1.226-46.225-1.377-60.787
			c-0.144-14.547,8.573-16.406,11.777-12.391c3.215,4.021,7.828,24.152,7.828,33.734c-0.008,9.564,7.464,9.342,10.968,6.533
			c3.501-2.801,7.873-45.205,10.532-59.445c2.651-14.229,14.162-6.209,15.637-3.561c1.482,2.639-0.259,37.188-0.852,44.051
			c-0.613,6.863,1.675,14.24,6.554,15.574c2.546,0.693,16-44.443,19.35-52.221c3.348-7.785,11.472-12.893,17.825-10.428
			c6.793,2.65,4.737,11.533,3.187,15.957c-1.561,4.447-11.999,34.471-14.335,39.518c-2.342,5.064-5.221,11.83-2.964,13.854
			c2.249,2.02,25.69-20.52,38.532-30.783c12.842-10.275,16.803,8.248,10.879,13.605c-5.33,4.85-28.629,28.197-39.117,39.85
			c-3.185,0.84-6.143,1.15-8.094,0.279c-3.819-1.746-19.998-8.578-23.117-10.014c-3.12-1.436-7.598-4.346-9.081-2.76
			c-1.494,1.576-0.844,7.545,3.729,9.592c4.576,2.027,8.526,3.785,8.192,6.805c-0.334,3.029-4.458,4.746-9.97,5.217
			c-5.511,0.482-22.762,0.514-26.237,0.35c-3.482-0.166-7.96,6.754-0.844,7.557c7.12,0.793,21.282,1.055,21.348,2.381
			c0.068,1.311-2.898,2.51-5.175,3.35c-2.278,0.832-14.746,6.875-16.583,7.746c-1.858,0.895-4.632,4.295-3.941,5.902
			c0.696,1.604,5.272,3.65,8.707,2.287c3.424-1.377,19.193-9.441,19.835-8.5c0.649,0.953,1.723,3.252-0.574,5.189
			c-2.295,1.914-13.471,12.029-13.835,13.303c-0.356,1.275,0.718,7.287,5.923,3.715c5.206-3.57,19.605-15.293,21.548-15.072
			c1.941,0.223,4.315,2.459,1.368,5.396c-2.947,2.961-7.732,10.578-7.979,12.797c-0.249,2.236,3.005,4.346,7.443-0.184
			c4.439-4.525,12.736-16.262,18.295-19.143c2.383-1.225,5.646-3.512,8.773-5.871c4.087-0.781,8.871-2.609,13.991-4.586
			c10.744-4.113,21.472,4.525,21.625,9.512c0.163,4.977-11.826,7.537-19.224,10.256c-7.394,2.721-44.77,17.914-53.773,21.295
			c-6.287,2.377-12.04,11.418-16.632,21.191c13.319,11.668,22.017,23.912,22.017,38.16c0-60.775,158.313-85.271,158.313-182.336
			C316.626,51.354,290.246,0,235.589,0z"/>
	</g>
</g>
</svg>
