<?xml version="1.0" encoding="utf-8"?>
<!-- Generator: Adobe Illustrator 16.0.0, SVG Export Plug-In . SVG Version: 6.00 Build 0)  -->
<!DOCTYPE svg PUBLIC "-//W3C//DTD SVG 1.1//EN" "http://www.w3.org/Graphics/SVG/1.1/DTD/svg11.dtd">
<svg version="1.1" id="Layer_1" xmlns="http://www.w3.org/2000/svg" xmlns:xlink="http://www.w3.org/1999/xlink" x="0px" y="0px"
	 width="106.174px" height="107.63px" viewBox="0 0 106.174 107.63" enable-background="new 0 0 106.174 107.63"
	 xml:space="preserve">
<path fill="#0190B0" d="M56.86,1.595V0h-1.401v5.606h1.401V4.188c26.09,1.937,46.728,23.777,46.728,50.354
	c0,27.845-22.654,50.499-50.5,50.499c-27.845,0-50.499-22.654-50.499-50.499c0-26.283,20.184-47.937,45.865-50.285v1.349h1.4V0h-1.4
	v1.661C21.342,4.018,0,26.831,0,54.543c0,29.271,23.815,53.087,53.087,53.087c29.273,0,53.087-23.815,53.087-53.087
	C106.174,26.539,84.377,3.537,56.86,1.595z"/>
<path fill="#0190B0" d="M80.185,51.842c-0.334-0.685-1.029-1.12-1.792-1.12H65.832c3.147-3.216,5.09-7.616,5.09-12.473
	c0-9.851-7.983-17.835-17.834-17.835c-9.852,0-17.834,7.984-17.834,17.835c0,4.856,1.943,9.257,5.09,12.473H27.782
	c-0.763,0-1.459,0.436-1.792,1.12c-0.335,0.685-0.25,1.499,0.218,2.101l25.306,32.505c0.378,0.483,0.959,0.769,1.575,0.769
	c0.615,0,1.195-0.285,1.575-0.769l25.304-32.504C80.435,53.342,80.519,52.526,80.185,51.842z M43.775,46.453
	c0-5.144,4.168-9.312,9.313-9.312c5.143,0,9.312,4.169,9.312,9.312c0,1.54-0.378,2.991-1.042,4.269
	c-0.377,0.729-0.848,1.396-1.396,1.995c-0.739,0.809-1.618,1.487-2.6,1.995c-0.04,0.021-0.078,0.046-0.118,0.065v0.814v0.895h7.677
	c0.444,0,0.85,0.253,1.046,0.653c0.195,0.398,0.146,0.875-0.128,1.226L54.006,73.576c-0.221,0.284-0.56,0.45-0.919,0.45
	c-0.359,0-0.698-0.166-0.918-0.45L40.335,58.365c-0.272-0.351-0.322-0.827-0.127-1.226c0.194-0.4,0.601-0.653,1.046-0.653h7.678
	v-0.895v-0.814c-0.041-0.02-0.079-0.044-0.118-0.065c-0.982-0.508-1.86-1.187-2.6-1.995c-0.548-0.599-1.02-1.267-1.396-1.995
	C44.155,49.442,43.775,47.993,43.775,46.453z"/>
</svg>
