<?xml version="1.0" encoding="utf-8"?>
<!-- Generator: Adobe Illustrator 16.0.0, SVG Export Plug-In . SVG Version: 6.00 Build 0)  -->
<!DOCTYPE svg PUBLIC "-//W3C//DTD SVG 1.1//EN" "http://www.w3.org/Graphics/SVG/1.1/DTD/svg11.dtd">
<svg version="1.1" id="Layer_1" xmlns="http://www.w3.org/2000/svg" xmlns:xlink="http://www.w3.org/1999/xlink" x="0px" y="0px"
	 width="114px" height="115.563px" viewBox="0 0 114 115.563" enable-background="new 0 0 114 115.563" xml:space="preserve">
<g>
	<g>
		<path fill="#F5AC4C" d="M65.655,83.136c-1.25,0-15.972,0-17.932,0c-1.25,0-2.856,1.675-2.856,2.635
			c0,1.082,1.338,2.631,2.856,2.631c1.514,0,16.861,0,18.11,0c1.25,0,3.121-1.071,3.121-2.589
			C68.954,84.299,66.904,83.136,65.655,83.136z"/>
		<path fill="#F5AC4C" d="M50.933,98.94c0.135,0.534,0.403,1.741,1.963,1.741c1.56,0,7.404,0,8.253,0
			c0.846,0,1.517-1.028,1.828-1.741c0.243-0.555,0.779-2.826,1.006-3.816c-2.818,0-10.633,0-14.033,0
			C50.251,96.287,50.835,98.546,50.933,98.94z"/>
		<path fill="#F5AC4C" d="M64.787,89.158c-1.138,0-14.549,0-16.338,0c-1.137,0-2.6,1.507-2.6,2.635c0,1.046,1.217,2.631,2.6,2.631
			c0.218,0,0.754,0,1.503,0c3.399,0,11.215,0,14.033,0c0.487,0,0.825,0,0.965,0c1.139,0,2.848-1.07,2.848-2.588
			C67.797,90.322,65.926,89.158,64.787,89.158z"/>
		<path fill="#F5AC4C" d="M81.356,41.652c0-13.471-11.599-23.998-23.909-23.998h-0.895c-12.31,0-23.909,10.527-23.909,23.998
			c0,13.47,10.706,20.606,10.706,31.58c0,2.5-1.249,8.122,3.835,8.122c5.087,0,9.368,0,9.368,0h0.895c0,0,4.281,0,9.365,0
			c5.087,0,3.838-5.622,3.838-8.122C70.65,62.259,81.356,55.122,81.356,41.652z M52.293,69.02l-4.917-20.466
			c-0.333-0.124-0.571-0.438-0.571-0.814c0-0.478,0.389-0.868,0.87-0.868c0.479,0,0.871,0.391,0.871,0.868
			c0,0.217-0.081,0.411-0.21,0.56l5.228,20.385L52.293,69.02z M67.226,48.554L62.31,69.02l-1.274-0.336l5.231-20.385
			c-0.13-0.148-0.211-0.343-0.211-0.56c0-0.478,0.389-0.868,0.871-0.868c0.479,0,0.871,0.391,0.871,0.868
			C67.797,48.116,67.556,48.43,67.226,48.554z M66.88,43.727l-4.819,2.142l-4.349-3.616l-4.349,3.616l-4.816-2.142l-3.347,2.61
			l-1.472-0.938l4.552-4.215l4.816,2.574l4.616-3.978l4.619,3.978l4.817-2.574l4.551,4.215l-1.474,0.938L66.88,43.727z"/>
	</g>
	<path fill="#F5AC4C" d="M61.051,1.713V0h-1.505v6.021h1.505V4.498c28.013,2.08,50.172,25.529,50.172,54.065
		c0,29.897-24.324,54.221-54.223,54.221c-29.897,0-54.221-24.323-54.221-54.221c0-28.221,21.671-51.47,49.245-53.991v1.448h1.503V0
		h-1.503v1.784C22.915,4.313,0,28.81,0,58.563c0,31.43,25.571,57,57,57c31.431,0,57-25.57,57-57
		C114,28.495,90.596,3.799,61.051,1.713z"/>
</g>
</svg>
