<?xml version="1.0" encoding="utf-8"?>
<!-- Generator: Adobe Illustrator 16.0.0, SVG Export Plug-In . SVG Version: 6.00 Build 0)  -->
<!DOCTYPE svg PUBLIC "-//W3C//DTD SVG 1.1//EN" "http://www.w3.org/Graphics/SVG/1.1/DTD/svg11.dtd">
<svg version="1.1" id="Layer_1" xmlns="http://www.w3.org/2000/svg" xmlns:xlink="http://www.w3.org/1999/xlink" x="0px" y="0px"
	 width="114px" height="115.563px" viewBox="0 0 114 115.563" enable-background="new 0 0 114 115.563" xml:space="preserve">
<g>
	<g>
		<path fill="#F5AC4C" d="M77.826,30.089C63.094,30.089,57,46.469,57,46.469s-6.096-16.38-20.826-16.38
			c-14.73,0-21.84,13.84-21.84,25.649c0,14.079,12.36,22.495,23.774,29.815c0.411-2.745,1.106-9.562,2.141-12.803
			c1.175-3.69-0.331-12.457-0.371-16.382c-0.039-3.921,2.31-4.422,3.174-3.34c0.867,1.084,2.109,6.51,2.109,9.092
			c-0.002,2.577,2.012,2.518,2.956,1.761c0.944-0.755,2.122-12.184,2.838-16.021c0.715-3.835,3.817-1.674,4.214-0.96
			c0.399,0.711-0.07,10.022-0.23,11.872c-0.165,1.85,0.452,3.838,1.767,4.197c0.686,0.187,4.312-11.978,5.215-14.074
			c0.902-2.098,3.092-3.475,4.804-2.81c1.831,0.714,1.277,3.107,0.859,4.3c-0.42,1.198-3.234,9.29-3.863,10.65
			c-0.631,1.365-1.407,3.188-0.799,3.733c0.606,0.545,6.924-5.529,10.385-8.296c3.46-2.77,4.528,2.223,2.932,3.667
			c-1.437,1.307-7.716,7.599-10.542,10.739c-0.858,0.227-1.656,0.311-2.182,0.075c-1.029-0.471-5.39-2.312-6.23-2.699
			c-0.841-0.387-2.048-1.171-2.447-0.743c-0.403,0.425-0.228,2.033,1.005,2.585c1.233,0.546,2.298,1.021,2.208,1.834
			c-0.09,0.816-1.202,1.279-2.687,1.406c-1.485,0.13-6.135,0.138-7.071,0.094c-0.938-0.045-2.146,1.82-0.228,2.036
			c1.918,0.214,5.735,0.284,5.753,0.643c0.018,0.353-0.781,0.676-1.395,0.902c-0.614,0.225-3.974,1.853-4.47,2.088
			c-0.5,0.241-1.248,1.157-1.062,1.591c0.188,0.432,1.421,0.983,2.347,0.616c0.922-0.371,5.172-2.545,5.345-2.291
			c0.175,0.257,0.465,0.876-0.154,1.398c-0.619,0.516-3.631,3.242-3.729,3.585c-0.096,0.344,0.193,1.964,1.597,1.002
			c1.403-0.963,5.284-4.122,5.807-4.062s1.163,0.663,0.369,1.454c-0.794,0.798-2.084,2.852-2.15,3.449
			c-0.067,0.603,0.81,1.171,2.006-0.05c1.196-1.22,3.432-4.383,4.931-5.158c0.642-0.331,1.521-0.947,2.364-1.583
			c1.102-0.21,2.391-0.703,3.771-1.236c2.896-1.107,5.787,1.22,5.828,2.564c0.044,1.341-3.187,2.03-5.181,2.764
			c-1.993,0.732-12.066,4.827-14.492,5.738c-1.694,0.641-3.245,3.078-4.482,5.712C54.656,97.739,57,101.039,57,104.879
			c0-16.38,42.666-22.981,42.666-49.141C99.666,43.929,92.556,30.089,77.826,30.089z"/>
	</g>
	<path fill="#F5AC4C" d="M61.051,1.712V0h-1.504v6.02h1.504V4.497c28.013,2.08,50.172,25.53,50.172,54.066
		c0,29.898-24.324,54.222-54.223,54.222S2.778,88.462,2.778,58.563c0-28.221,21.671-51.47,49.245-53.992V6.02h1.504V0h-1.504v1.783
		C22.915,4.313,0,28.81,0,58.563c0,31.429,25.57,57,57,57s57-25.571,57-57C114,28.495,90.597,3.799,61.051,1.712z"/>
</g>
</svg>
