<?xml version="1.0" encoding="utf-8"?>
<!-- Generator: Adobe Illustrator 16.0.0, SVG Export Plug-In . SVG Version: 6.00 Build 0)  -->
<!DOCTYPE svg PUBLIC "-//W3C//DTD SVG 1.1//EN" "http://www.w3.org/Graphics/SVG/1.1/DTD/svg11.dtd">
<svg version="1.1" id="Layer_1" xmlns="http://www.w3.org/2000/svg" xmlns:xlink="http://www.w3.org/1999/xlink" x="0px" y="0px"
	 width="114px" height="115.563px" viewBox="0 0 114 115.563" enable-background="new 0 0 114 115.563" xml:space="preserve">
<g>
	<g>
		<path fill="#F5AC4C" d="M80.466,59.483v23.243h-19.98c-1.818,2.472-3.376,4.788-4.429,6.709h24.039
			c3.909,0,7.078-3.17,7.078-7.078V54.426C84.835,55.794,82.454,57.712,80.466,59.483z"/>
		<path fill="#F5AC4C" d="M35.119,37.384h35.665c2.292-2.562,4.526-4.703,7.002-6.676c-0.211-0.021-0.423-0.034-0.639-0.034H35.488
			c-3.91,0-7.079,3.168-7.079,7.079v22.873c2.111-1.302,4.512-2.783,6.709-4.142V37.384z"/>
		<path fill="#F5AC4C" d="M42.216,82.727h-7.097v-5.649c-2.016-1.498-4.458-3.218-6.709-4.613v9.894
			c0,3.908,3.169,7.078,7.079,7.078h12.812C46.855,87.375,44.503,84.923,42.216,82.727z"/>
		<path fill="#F5AC4C" d="M90.141,24.43c-3.692,2.139-6.694,4.114-9.407,6.278c-2.473,1.973-4.709,4.114-7.002,6.676
			c-1.936,2.164-3.913,4.623-6.115,7.556c-7.889,10.524-16.355,28.407-16.355,28.407l-9.181-18.22c0,0-3.174,1.966-6.961,4.305
			c-2.197,1.362-4.598,2.845-6.709,4.146c-2.473,1.524-4.545,2.795-5.409,3.313c1.256,0.241,3.243,1.279,5.409,2.623
			c2.252,1.396,4.693,3.118,6.709,4.614c1.809,1.345,3.273,2.507,3.95,3.093c1.004,0.871,3.507,3.023,6.096,5.506
			c2.288,2.196,4.64,4.648,6.086,6.709c0.424,0.607,0.772,1.18,1.015,1.699c0.225-0.522,0.509-1.09,0.842-1.699
			c1.054-1.921,2.612-4.237,4.428-6.709c6.758-9.197,17.137-20.596,18.834-22.291c0.837-0.839,2.31-2.309,4.097-3.9
			c1.988-1.772,4.369-3.691,6.708-5.058C88.488,50.71,89.79,50.114,91,49.82C87.413,43.362,88.418,30.599,90.141,24.43z"/>
	</g>
	<path fill="#F5AC4C" d="M61.051,1.712V0h-1.505v6.02h1.505V4.497c28.013,2.08,50.172,25.53,50.172,54.066
		c0,29.898-24.324,54.222-54.223,54.222S2.778,88.462,2.778,58.563c0-28.221,21.671-51.47,49.245-53.992V6.02h1.505V0h-1.505v1.783
		C22.915,4.313,0,28.81,0,58.563c0,31.429,25.57,57,57,57c31.431,0,57-25.571,57-57C114,28.495,90.597,3.799,61.051,1.712z"/>
</g>
</svg>
